<svg width="512" height="512" viewBox="0 0 512 512" fill="none" xmlns="http://www.w3.org/2000/svg">
<path d="M207.598 216.791C235.657 214.027 257.984 219.631 269.415 241.143C321.006 215.876 364.393 187.607 395.859 154.974L512 141.861C417.094 172.823 331.002 207.373 284.401 258.003C261.765 283.023 249.846 321.238 255.365 343.235C215.491 383.769 162.341 405.952 95.2027 408.799C72.8458 379.571 40.9188 358.684 0.603787 345.109C-3.14271 321.693 10.8423 299.1 34.3222 287.038C19.9002 305.895 17.2346 320.248 28.7025 329.186C88.6464 347.919 191.675 312.327 241.316 247.7C249.441 234.314 234.757 224.559 207.598 216.791Z" fill="url(#paint0_linear_3_53)"/>
<path d="M122.949 294.146C88.2265 308.449 41.4822 265.477 59.5367 213.694C71.871 179.328 52.7089 141.841 19.8936 103C146.72 134.834 222.25 203.488 156.583 277.431C171.545 233.129 158.169 212.667 133.832 201.426C137.807 214.325 135.8 223.823 128.49 230.307C118.699 176.426 96.3317 147.852 64.7806 137.757C120.242 190.26 37.0808 278.857 122.949 294.146Z" fill="url(#paint1_linear_3_53)"/>
<defs>
<linearGradient id="paint0_linear_3_53" x1="-4.96081e-07" y1="275.33" x2="512" y2="275.33" gradientUnits="userSpaceOnUse">
<stop offset="0.06834" stop-color="#F1FF21"/>
<stop offset="0.81091" stop-color="#AAA100"/>
</linearGradient>
<linearGradient id="paint1_linear_3_53" x1="19.8936" y1="199.964" x2="180.767" y2="199.964" gradientUnits="userSpaceOnUse">
<stop offset="0.06834" stop-color="#F1FF21"/>
<stop offset="1" stop-color="#AAA100"/>
</linearGradient>
</defs>
</svg>
